<svg id="Original" xmlns="http://www.w3.org/2000/svg" viewBox="0 0 290 165"><defs><style>.cls-1{fill:#8296a1;}.cls-2{fill:#fff;}.cls-3{fill:#005594;}.cls-4{fill:none;}.cls-5{fill:#2ea5de;}.cls-6{fill:#e0e3e6;}.cls-7{fill:#9ddcf9;}</style></defs><polygon class="cls-1" points="65.52 118.05 46.36 118.05 46.36 58.58 67.67 72.45 67.67 112.01 65.52 118.05"/><polygon class="cls-1" points="43.93 118.05 20.15 118.05 20.15 98.07 32.04 89.14 43.93 98.07 43.93 118.05"/><path class="cls-2" d="M78.66,92a.85.85,0,1,0-.85-.84A.85.85,0,0,0,78.66,92Z"/><path class="cls-3" d="M135.94,117.86l-9.27-25.55-.82,1.13.1.28-.24-.08-.74,1,1.48.47,3.63,10-14.36-4.83-1.54-9.1,1.46.47c-.25-.37-.48-.72-.65-1a5,5,0,0,1-.22-.47l-.8-.26-1.06-6.24,1.32.25a6.94,6.94,0,0,1,.42-1.1l-2.34-.44a.74.74,0,0,0-.21,0l-11.36,2.08L89.09,82.37a.74.74,0,0,0-.21,0l-2.28.44a10.8,10.8,0,0,1,.93,1l.76-.14-.14.89a11,11,0,0,1,.93,1.59l.38-2.53,2.37.42,8.44,1.51v7.07L90.2,90.2c0,.32.1.63.1,1a2,2,0,0,1,0,.24l10,2.4v10.38L87,100.25c-.49.71-1,1.48-1.62,2.26l-1.63,10.68-16.78,4,3.88-10.76,3.49-1.17-.75-1-2.24.75.9-2.48-.82-1.11-5.91,16.36a.56.56,0,0,0,.11.58.59.59,0,0,0,.43.19h.14l18.06-4.36,16.29,4.35a.51.51,0,0,0,.3,0l16.5-4.4,17.87,4.4a.54.54,0,0,0,.56-.17A.56.56,0,0,0,135.94,117.86Zm-35.67-.53-6.93-1.85L85,113.24l1.81-11.87,13.51,4Zm1.15-31.83,10.31-1.89,1.07,6.3-11.38,2.73Zm0,8.33L113,91.05l1.56,9.26-13.13,3.9Zm11.32,20.43-11.32,3V105.41l13.33-4,2,11.74Zm5.15-1.11-2-11.58,14.65,4.93,3.89,10.73Z"/><path class="cls-3" d="M130,64.16a8.76,8.76,0,0,1-1.06,4.5,8.34,8.34,0,0,1-2.82,2.93,12.19,12.19,0,0,1-4,1.6,21.8,21.8,0,0,1-4.59.48h-13V41h13a20.21,20.21,0,0,1,3.88.4,11.26,11.26,0,0,1,3.6,1.34,7.18,7.18,0,0,1,3.64,6.67,6.83,6.83,0,0,1-1.47,4.5,8.28,8.28,0,0,1-3.88,2.56v.09a9.1,9.1,0,0,1,2.61.86A7.61,7.61,0,0,1,128.08,59a7.43,7.43,0,0,1,1.43,2.26A7.66,7.66,0,0,1,130,64.16Zm-8.95-13.71A2.61,2.61,0,0,0,119.82,48a7.43,7.43,0,0,0-3.77-.77h-3.88V54h4.25a5.7,5.7,0,0,0,3.44-.91A3.07,3.07,0,0,0,121.09,50.45Zm1.06,13a2.88,2.88,0,0,0-1.53-2.81,8.8,8.8,0,0,0-4.06-.79h-4.39V67.3h4.44a11.63,11.63,0,0,0,1.91-.16,5.94,5.94,0,0,0,1.8-.58,3.26,3.26,0,0,0,1.83-3.14Z"/><path class="cls-3" d="M133.87,73.67V41h22v6.65H141.49v6.19h13.58v6.32H141.49v6.79h15.19v6.74Z"/><path class="cls-3" d="M175.42,47.73V73.67h-7.89V47.73H158.3V41h26.36v6.75Z"/><path class="cls-3" d="M203.63,47.73V73.67h-7.89V47.73H186.5V41h26.37v6.75Z"/><path class="cls-3" d="M215.08,73.67V41h22v6.65H222.7v6.19h13.58v6.32H222.7v6.79h15.19v6.74Z"/><path class="cls-3" d="M259.22,73.67l-7.1-13h-2.69v13h-7.71V41h12.47a21.8,21.8,0,0,1,4.59.49,12,12,0,0,1,4,1.64,8.58,8.58,0,0,1,2.84,3,9.49,9.49,0,0,1,1.06,4.71,8.69,8.69,0,0,1-1.8,5.58,9.75,9.75,0,0,1-5,3.23l8.54,14ZM258.9,51a3.31,3.31,0,0,0-.49-1.87,3.39,3.39,0,0,0-1.25-1.1,5.49,5.49,0,0,0-1.72-.53,11.63,11.63,0,0,0-1.83-.14h-4.22V55h3.75a12.56,12.56,0,0,0,2-.17,6.74,6.74,0,0,0,1.86-.57A3.41,3.41,0,0,0,258.9,51Z"/><path class="cls-1" d="M135.5,83.45h2.64a3.36,3.36,0,0,1,.92.12,2.25,2.25,0,0,1,.73.35,1.46,1.46,0,0,1,.48.59,1.86,1.86,0,0,1,.18.84,1.56,1.56,0,0,1-.36,1.07,2.14,2.14,0,0,1-1,.61v0a1.51,1.51,0,0,1,.65.18,1.72,1.72,0,0,1,.52.41,1.87,1.87,0,0,1,.47,1.3,1.91,1.91,0,0,1-.21.91,2,2,0,0,1-.57.66,2.8,2.8,0,0,1-.85.41,3.85,3.85,0,0,1-1,.13H135.5Zm1,3.16h1.41a2.35,2.35,0,0,0,.54-.06,1.29,1.29,0,0,0,.46-.2.92.92,0,0,0,.3-.35,1.09,1.09,0,0,0,.11-.53,1.15,1.15,0,0,0-.28-.78,1.18,1.18,0,0,0-.92-.34h-1.62Zm0,3.54h1.52a3.37,3.37,0,0,0,.52,0,1.7,1.7,0,0,0,.53-.2,1.55,1.55,0,0,0,.42-.39,1.15,1.15,0,0,0,.17-.66,1.19,1.19,0,0,0-.44-1,1.89,1.89,0,0,0-1.19-.34h-1.53Z"/><path class="cls-1" d="M144.23,83.45v4.66a2.74,2.74,0,0,0,.1.74,2,2,0,0,0,.32.7,1.68,1.68,0,0,0,.59.53,2.12,2.12,0,0,0,1.8,0,1.77,1.77,0,0,0,.59-.53,2,2,0,0,0,.32-.7,2.74,2.74,0,0,0,.1-.74V83.45h1v4.82a2.94,2.94,0,0,1-.23,1.21,2.61,2.61,0,0,1-.62.94,2.55,2.55,0,0,1-.93.61A3.17,3.17,0,0,1,145,91a2.55,2.55,0,0,1-.93-.61,2.78,2.78,0,0,1-.63-.94,3.11,3.11,0,0,1-.22-1.21V83.45Z"/><path class="cls-1" d="M152,83.45h1v7.6h-1Z"/><path class="cls-1" d="M156,83.45h1v6.64h3.49v1H156Z"/><path class="cls-1" d="M162.5,83.45h2.66a4.67,4.67,0,0,1,1.41.19,3.63,3.63,0,0,1,1.05.49,2.91,2.91,0,0,1,.74.7,3.7,3.7,0,0,1,.47.81,4.42,4.42,0,0,1,.24.84,4.48,4.48,0,0,1,.08.77,3.85,3.85,0,0,1-.27,1.42,3.67,3.67,0,0,1-.79,1.21,4,4,0,0,1-1.31.85,4.59,4.59,0,0,1-1.8.32H162.5Zm1,6.64h1.3a4.18,4.18,0,0,0,1.24-.18,3.05,3.05,0,0,0,1-.53,2.69,2.69,0,0,0,.7-.89,2.8,2.8,0,0,0,.25-1.24,4.21,4.21,0,0,0-.11-.85,2.66,2.66,0,0,0-.45-.93,2.75,2.75,0,0,0-.91-.75,3.25,3.25,0,0,0-1.5-.3h-1.55Z"/><path class="cls-1" d="M171.7,83.45h1v7.6h-1Z"/><path class="cls-1" d="M175.76,83.45h1.36l4.18,6.25h0V83.45h1v7.6h-1.31l-4.23-6.24h0v6.24h-1Z"/><path class="cls-1" d="M191.86,86.8v3.75a4.24,4.24,0,0,1-.64.3,5.62,5.62,0,0,1-.73.22,6.69,6.69,0,0,1-.78.14c-.26,0-.5,0-.73,0a4.48,4.48,0,0,1-1.73-.32,4,4,0,0,1-1.27-.87,3.85,3.85,0,0,1-.8-1.28,4.32,4.32,0,0,1-.27-1.53,4.07,4.07,0,0,1,.3-1.57,3.69,3.69,0,0,1,2.06-2.11,4,4,0,0,1,1.6-.31,4.86,4.86,0,0,1,1.72.26,3.25,3.25,0,0,1,1.12.73L191,85a2.79,2.79,0,0,0-1-.63,3.68,3.68,0,0,0-1.11-.17,2.74,2.74,0,0,0-2.08.89,2.74,2.74,0,0,0-.58,1,3.27,3.27,0,0,0-.2,1.17,3.16,3.16,0,0,0,.22,1.2,3,3,0,0,0,.62,1,2.9,2.9,0,0,0,.94.64,3,3,0,0,0,1.17.23,4.87,4.87,0,0,0,1-.1,3,3,0,0,0,.84-.3V87.77h-1.69v-1Z"/><path class="cls-1" d="M198.86,83.45h4.91v1H199.9v2.27h3.6v1h-3.6v2.44H204v1h-5.11Z"/><path class="cls-1" d="M206.5,83.45h4.78v1h-3.75V86.8H211v1h-3.49v3.28h-1Z"/><path class="cls-1" d="M213.74,83.45h4.78v1h-3.75V86.8h3.49v1h-3.49v3.28h-1Z"/><path class="cls-1" d="M221,83.45h1v7.6h-1Z"/><path class="cls-1" d="M230.33,85.1a2.18,2.18,0,0,0-.82-.65,2.43,2.43,0,0,0-1-.22,2.7,2.7,0,0,0-1.16.24,2.56,2.56,0,0,0-.89.66,3,3,0,0,0-.58,1,3.7,3.7,0,0,0-.2,1.21,3.33,3.33,0,0,0,.19,1.14,2.8,2.8,0,0,0,.56.94,2.51,2.51,0,0,0,.89.64,2.84,2.84,0,0,0,1.19.24,2.35,2.35,0,0,0,1.15-.27,2.31,2.31,0,0,0,.84-.75l.87.66a3.43,3.43,0,0,1-.3.33,3,3,0,0,1-.57.44,3.83,3.83,0,0,1-.86.39,3.62,3.62,0,0,1-1.15.17,3.78,3.78,0,0,1-1.63-.35,3.84,3.84,0,0,1-1.23-.9,4,4,0,0,1-1.05-2.68,4.54,4.54,0,0,1,.29-1.63,4,4,0,0,1,.81-1.29,3.72,3.72,0,0,1,1.25-.84,4.23,4.23,0,0,1,1.61-.3,4,4,0,0,1,1.48.29,2.78,2.78,0,0,1,1.19.89Z"/><path class="cls-1" d="M233.67,83.45h1v7.6h-1Z"/><path class="cls-1" d="M237.72,83.45h4.91v1h-3.87v2.27h3.6v1h-3.6v2.44h4.06v1h-5.1Z"/><path class="cls-1" d="M245.36,83.45h1.35l4.19,6.25h0V83.45h1v7.6h-1.31l-4.23-6.24h0v6.24h-1Z"/><path class="cls-1" d="M260.27,85.1a2.1,2.1,0,0,0-.82-.65,2.36,2.36,0,0,0-1-.22,2.78,2.78,0,0,0-1.17.24,2.65,2.65,0,0,0-.89.66,3,3,0,0,0-.58,1,3.7,3.7,0,0,0-.2,1.21,3.59,3.59,0,0,0,.19,1.14,3,3,0,0,0,.56.94,2.6,2.6,0,0,0,.89.64,2.86,2.86,0,0,0,1.2.24,2.31,2.31,0,0,0,2-1l.87.66a3.43,3.43,0,0,1-.3.33,2.5,2.5,0,0,1-.57.44,3.74,3.74,0,0,1-.85.39,4,4,0,0,1-2.78-.18,3.9,3.9,0,0,1-2-2.16,4.14,4.14,0,0,1-.26-1.42,4.33,4.33,0,0,1,.29-1.63,3.82,3.82,0,0,1,.81-1.29,3.53,3.53,0,0,1,1.25-.84,4.16,4.16,0,0,1,1.61-.3,4,4,0,0,1,1.47.29,2.72,2.72,0,0,1,1.19.89Z"/><path class="cls-1" d="M265.4,87.81l-2.87-4.36h1.32l2.07,3.34,2.14-3.34h1.25l-2.88,4.36v3.24h-1Z"/><path class="cls-1" d="M136,97.3h-2.45v-1h5.93v1h-2.45v6.64h-1Z"/><path class="cls-1" d="M143.08,96.34H144l3.25,7.6h-1.2l-.76-1.88h-3.62l-.75,1.88h-1.21Zm1.85,4.82-1.42-3.49h0l-1.44,3.49Z"/><path class="cls-1" d="M149.33,96.34H152a3,3,0,0,1,1.2.2,2.06,2.06,0,0,1,.75.5,1.8,1.8,0,0,1,.38.69,2.73,2.73,0,0,1,.1.73,1.9,1.9,0,0,1-.13.71,2,2,0,0,1-.37.61,2,2,0,0,1-.59.46,2,2,0,0,1-.77.23l2.15,3.47h-1.28l-1.94-3.35h-1.15v3.35h-1Zm1,3.35h1.36a3.81,3.81,0,0,0,.59,0,1.51,1.51,0,0,0,.53-.18.94.94,0,0,0,.37-.37,1.28,1.28,0,0,0,.14-.63,1.33,1.33,0,0,0-.14-.63,1,1,0,0,0-.37-.37,1.74,1.74,0,0,0-.53-.17,2.88,2.88,0,0,0-.59-.05h-1.36Z"/><path class="cls-1" d="M163.44,99.69v3.74a3.36,3.36,0,0,1-.63.31c-.24.08-.48.15-.74.21a5,5,0,0,1-.77.14,6.46,6.46,0,0,1-.74,0,4.43,4.43,0,0,1-1.72-.32,3.67,3.67,0,0,1-2.07-2.14,4.19,4.19,0,0,1-.28-1.53,4.12,4.12,0,0,1,.3-1.58,3.91,3.91,0,0,1,.82-1.27,3.53,3.53,0,0,1,1.25-.84,4.15,4.15,0,0,1,1.6-.31,4.57,4.57,0,0,1,1.71.27,3,3,0,0,1,1.12.72l-.73.78a2.68,2.68,0,0,0-1-.62,3.38,3.38,0,0,0-1.1-.18,2.88,2.88,0,0,0-1.19.24,2.81,2.81,0,0,0-.9.65,2.9,2.9,0,0,0-.58,1,3.52,3.52,0,0,0-.2,1.18,2.9,2.9,0,0,0,.23,1.19,2.83,2.83,0,0,0,.62,1,2.91,2.91,0,0,0,.93.64,3,3,0,0,0,1.17.23,5,5,0,0,0,1-.11,2.7,2.7,0,0,0,.83-.29v-2.12h-1.69v-1Z"/><path class="cls-1" d="M166.39,96.34h4.91v1h-3.88v2.27H171v1h-3.61V103h4.07v1h-5.1Z"/><path class="cls-1" d="M175.61,97.3h-2.44v-1h5.92v1h-2.44v6.64h-1Z"/><path class="cls-1" d="M181.26,96.34h1v7.6h-1Z"/><path class="cls-1" d="M185.32,96.34h1.36l4.18,6.25h0V96.34h1v7.6H190.6l-4.23-6.25h0v6.25h-1Z"/><path class="cls-1" d="M201.41,99.69v3.74a3.08,3.08,0,0,1-.63.31c-.23.08-.48.15-.73.21a5.32,5.32,0,0,1-.78.14,6.29,6.29,0,0,1-.73,0,4.48,4.48,0,0,1-1.73-.32,3.75,3.75,0,0,1-2.07-2.14,4.4,4.4,0,0,1-.27-1.53,4.31,4.31,0,0,1,.29-1.58,3.91,3.91,0,0,1,.82-1.27,3.62,3.62,0,0,1,1.25-.84,4.19,4.19,0,0,1,1.6-.31,4.66,4.66,0,0,1,1.72.27,3.18,3.18,0,0,1,1.12.72l-.73.78a2.76,2.76,0,0,0-1-.62,3.44,3.44,0,0,0-1.11-.18,2.74,2.74,0,0,0-2.08.89,2.74,2.74,0,0,0-.58,1,3.29,3.29,0,0,0-.21,1.18,3.08,3.08,0,0,0,.23,1.19,3.16,3.16,0,0,0,.62,1,3.07,3.07,0,0,0,.94.64,2.94,2.94,0,0,0,1.17.23,4.85,4.85,0,0,0,1-.11,2.61,2.61,0,0,0,.83-.29v-2.12H198.7v-1Z"/><path class="cls-1" d="M210,97.3h-2.44v-1h5.92v1h-2.44v6.64h-1Z"/><path class="cls-1" d="M219.15,104.13a4.18,4.18,0,0,1-1.6-.3,3.9,3.9,0,0,1-1.25-.85,3.79,3.79,0,0,1-.81-1.26,4.31,4.31,0,0,1,0-3.16,3.69,3.69,0,0,1,2.06-2.11,4.28,4.28,0,0,1,3.2,0,3.53,3.53,0,0,1,1.25.84,3.91,3.91,0,0,1,.82,1.27,4.45,4.45,0,0,1,0,3.16A4,4,0,0,1,222,103a3.69,3.69,0,0,1-1.25.85A4.15,4.15,0,0,1,219.15,104.13Zm0-1a2.8,2.8,0,0,0,1.18-.25,2.67,2.67,0,0,0,.9-.65,2.74,2.74,0,0,0,.58-1,3.39,3.39,0,0,0,0-2.35,2.74,2.74,0,0,0-.58-1,2.84,2.84,0,0,0-4.16,0,2.74,2.74,0,0,0-.58,1,3.55,3.55,0,0,0,0,2.35,2.74,2.74,0,0,0,.58,1,2.67,2.67,0,0,0,.9.65A2.83,2.83,0,0,0,219.15,103.17Z"/><path class="cls-1" d="M229.16,104.13a4.18,4.18,0,0,1-1.6-.3,3.69,3.69,0,0,1-1.25-.85,4,4,0,0,1-.82-1.26,4.45,4.45,0,0,1,0-3.16,3.91,3.91,0,0,1,.82-1.27,3.53,3.53,0,0,1,1.25-.84,4.28,4.28,0,0,1,3.2,0,3.69,3.69,0,0,1,2.06,2.11,4.31,4.31,0,0,1,0,3.16A3.79,3.79,0,0,1,232,103a3.9,3.9,0,0,1-1.25.85A4.18,4.18,0,0,1,229.16,104.13Zm0-1a2.83,2.83,0,0,0,1.18-.25,2.67,2.67,0,0,0,.9-.65,2.9,2.9,0,0,0,.58-1,3.55,3.55,0,0,0,0-2.35,2.9,2.9,0,0,0-.58-1,2.92,2.92,0,0,0-3.26-.65,2.85,2.85,0,0,0-.91.65,2.9,2.9,0,0,0-.58,1,3.55,3.55,0,0,0,0,2.35,2.9,2.9,0,0,0,.58,1,2.71,2.71,0,0,0,.91.65A2.8,2.8,0,0,0,229.16,103.17Z"/><path class="cls-1" d="M235.67,96.34h1V103h3.49v1h-4.53Z"/><path class="cls-1" d="M246.38,96.34h4.78v1h-3.75v2.39h3.49v1h-3.49v3.29h-1Z"/><path class="cls-1" d="M257.1,104.13a4.09,4.09,0,0,1-1.59-.3,3.84,3.84,0,0,1-1.26-.85,4,4,0,0,1-.81-1.26,4.31,4.31,0,0,1,0-3.16,3.89,3.89,0,0,1,.81-1.27,3.67,3.67,0,0,1,1.26-.84,4.1,4.1,0,0,1,1.59-.31,4.15,4.15,0,0,1,1.6.31,3.67,3.67,0,0,1,1.26.84,4.06,4.06,0,0,1,.81,1.27A4.15,4.15,0,0,1,260,103a3.84,3.84,0,0,1-1.26.85A4.15,4.15,0,0,1,257.1,104.13Zm0-1a2.76,2.76,0,0,0,1.18-.25,2.61,2.61,0,0,0,.91-.65,2.9,2.9,0,0,0,.58-1,3.55,3.55,0,0,0,0-2.35,2.9,2.9,0,0,0-.58-1,2.79,2.79,0,0,0-2.09-.89A2.74,2.74,0,0,0,255,98a2.9,2.9,0,0,0-.58,1,3.55,3.55,0,0,0,0,2.35,2.9,2.9,0,0,0,.58,1,2.67,2.67,0,0,0,.9.65A2.83,2.83,0,0,0,257.1,103.17Z"/><path class="cls-1" d="M263.62,96.34h2.67a3,3,0,0,1,1.21.2,1.93,1.93,0,0,1,.74.5,1.69,1.69,0,0,1,.39.69,2.73,2.73,0,0,1,.1.73,1.9,1.9,0,0,1-.13.71,2,2,0,0,1-.37.61,2.08,2.08,0,0,1-.59.46,2,2,0,0,1-.78.23l2.16,3.47h-1.29l-1.93-3.35h-1.15v3.35h-1Zm1,3.35H266a3.92,3.92,0,0,0,.59,0,1.51,1.51,0,0,0,.53-.18,1,1,0,0,0,.37-.37,1.28,1.28,0,0,0,.14-.63,1.33,1.33,0,0,0-.14-.63,1.09,1.09,0,0,0-.37-.37,1.74,1.74,0,0,0-.53-.17,2.94,2.94,0,0,0-.59-.05h-1.36Z"/><path class="cls-1" d="M151.88,109.22h4.91v1h-3.87v2.26h3.6v1h-3.6v2.43H157v1h-5.11Z"/><path class="cls-1" d="M159.52,109.22h1.35l4.19,6.25h0v-6.25h1v7.6H164.8l-4.23-6.25h0v6.25h-1Z"/><path class="cls-1" d="M169.14,109.22h4.91v1h-3.88v2.26h3.61v1h-3.61v2.43h4.07v1h-5.1Z"/><path class="cls-1" d="M176.77,109.22h2.68a3.2,3.2,0,0,1,1.2.2,2.19,2.19,0,0,1,.75.5,2,2,0,0,1,.38.69,2.8,2.8,0,0,1,.1.74,1.89,1.89,0,0,1-.13.7,1.92,1.92,0,0,1-.37.61,2,2,0,0,1-.59.46,1.82,1.82,0,0,1-.77.23l2.15,3.47h-1.28L179,113.47H177.8v3.35h-1Zm1,3.35h1.36a3.81,3.81,0,0,0,.59,0,1.51,1.51,0,0,0,.53-.18.91.91,0,0,0,.37-.36,1.33,1.33,0,0,0,.14-.63,1.28,1.28,0,0,0-.14-.63.94.94,0,0,0-.37-.37,1.51,1.51,0,0,0-.53-.18,3.81,3.81,0,0,0-.59,0H177.8Z"/><path class="cls-1" d="M190.88,112.57v3.75a4.1,4.1,0,0,1-.63.3c-.24.08-.48.16-.74.22A7.63,7.63,0,0,1,188,117a4.26,4.26,0,0,1-1.72-.33,3.73,3.73,0,0,1-1.28-.87,3.78,3.78,0,0,1-.79-1.27,4.32,4.32,0,0,1,0-3.11,3.87,3.87,0,0,1,.82-1.26,3.69,3.69,0,0,1,1.25-.85,4.15,4.15,0,0,1,1.6-.3,4.59,4.59,0,0,1,1.71.26,3.28,3.28,0,0,1,1.12.72l-.73.79a2.71,2.71,0,0,0-1-.63,3.38,3.38,0,0,0-1.1-.18,2.88,2.88,0,0,0-1.19.24,3,3,0,0,0-.9.65,3.12,3.12,0,0,0-.58,1A3.57,3.57,0,0,0,185,113a3,3,0,0,0,.23,1.2,2.69,2.69,0,0,0,.62,1,2.91,2.91,0,0,0,.93.64,3,3,0,0,0,1.17.23,5.73,5.73,0,0,0,1-.1,3,3,0,0,0,.83-.3v-2.11h-1.69v-1Z"/><path class="cls-1" d="M195.63,113.58l-2.88-4.36h1.32l2.07,3.34,2.14-3.34h1.25l-2.87,4.36v3.24h-1Z"/><path class="cls-1" d="M205.54,109.22h2.67a3.13,3.13,0,0,1,1.2.2,2,2,0,0,1,.75.5,1.81,1.81,0,0,1,.38.69,2.82,2.82,0,0,1,.11.74,2,2,0,0,1-.5,1.31,2.08,2.08,0,0,1-.59.46,1.86,1.86,0,0,1-.78.23l2.16,3.47h-1.29l-1.93-3.35h-1.15v3.35h-1Zm1,3.35h1.35a4,4,0,0,0,.6,0,1.46,1.46,0,0,0,.52-.18.86.86,0,0,0,.37-.36,1.22,1.22,0,0,0,.14-.63,1.18,1.18,0,0,0-.14-.63.88.88,0,0,0-.37-.37,1.46,1.46,0,0,0-.52-.18,4,4,0,0,0-.6,0h-1.35Z"/><path class="cls-1" d="M213.17,109.22h4.91v1H214.2v2.26h3.61v1H214.2v2.43h4.07v1h-5.1Z"/><path class="cls-1" d="M222.39,110.19h-2.45v-1h5.93v1h-2.45v6.63h-1Z"/><path class="cls-1" d="M228,109.22h2.67a3.22,3.22,0,0,1,1.21.2,2.05,2.05,0,0,1,.74.5,1.83,1.83,0,0,1,.39.69,2.8,2.8,0,0,1,.1.74,1.89,1.89,0,0,1-.13.7,1.92,1.92,0,0,1-.37.61,2.08,2.08,0,0,1-.59.46,1.82,1.82,0,0,1-.78.23l2.16,3.47h-1.29l-1.93-3.35h-1.15v3.35h-1Zm1,3.35h1.36a3.92,3.92,0,0,0,.59,0,1.51,1.51,0,0,0,.53-.18,1,1,0,0,0,.37-.36,1.33,1.33,0,0,0,.14-.63,1.28,1.28,0,0,0-.14-.63,1,1,0,0,0-.37-.37,1.51,1.51,0,0,0-.53-.18,3.92,3.92,0,0,0-.59,0h-1.36Z"/><path class="cls-1" d="M239.16,117a4.1,4.1,0,0,1-1.59-.31,3.81,3.81,0,0,1-1.26-.84,3.89,3.89,0,0,1-.81-1.27,4.31,4.31,0,0,1,0-3.16,3.74,3.74,0,0,1,2.07-2.11,4.09,4.09,0,0,1,1.59-.3,4.15,4.15,0,0,1,1.6.3,3.84,3.84,0,0,1,1.26.85,4,4,0,0,1,.81,1.26,4.31,4.31,0,0,1,0,3.16,4.06,4.06,0,0,1-.81,1.27,3.81,3.81,0,0,1-1.26.84A4.15,4.15,0,0,1,239.16,117Zm0-1a2.79,2.79,0,0,0,2.09-.89,2.9,2.9,0,0,0,.58-1A3.52,3.52,0,0,0,242,113a3.57,3.57,0,0,0-.2-1.18,3.12,3.12,0,0,0-.58-1,2.89,2.89,0,0,0-.91-.65,2.76,2.76,0,0,0-1.18-.24,2.83,2.83,0,0,0-1.18.24,3,3,0,0,0-.9.65,3.12,3.12,0,0,0-.58,1,3.57,3.57,0,0,0-.2,1.18,3.52,3.52,0,0,0,.2,1.18,2.9,2.9,0,0,0,.58,1,2.74,2.74,0,0,0,2.08.89Z"/><path class="cls-1" d="M245.68,109.22h4.78v1h-3.75v2.38h3.49v1h-3.49v3.28h-1Z"/><path class="cls-1" d="M252.92,109.22h1v7.6h-1Z"/><path class="cls-1" d="M258.56,110.19h-2.44v-1H262v1H259.6v6.63h-1Z"/><path class="cls-1" d="M264.44,115.23a1.63,1.63,0,0,0,.71.62,2.18,2.18,0,0,0,.9.2,1.88,1.88,0,0,0,.52-.08,1.6,1.6,0,0,0,.49-.24,1.25,1.25,0,0,0,.36-.4,1,1,0,0,0,.14-.55.82.82,0,0,0-.28-.67,2.5,2.5,0,0,0-.69-.39l-.9-.3a3.33,3.33,0,0,1-.9-.4,2,2,0,0,1-1-1.87,1.93,1.93,0,0,1,.15-.71,1.91,1.91,0,0,1,.46-.68,2.36,2.36,0,0,1,.8-.52,2.91,2.91,0,0,1,1.17-.21,4.17,4.17,0,0,1,1.19.17,2,2,0,0,1,1,.7l-.84.76a1.33,1.33,0,0,0-.54-.48,1.67,1.67,0,0,0-.81-.19,1.85,1.85,0,0,0-.71.12,1.25,1.25,0,0,0-.46.29,1,1,0,0,0-.24.38,1,1,0,0,0-.07.37.94.94,0,0,0,.28.74,1.91,1.91,0,0,0,.69.42,7.3,7.3,0,0,0,.9.29,4.32,4.32,0,0,1,.91.36,2.27,2.27,0,0,1,.69.62,1.92,1.92,0,0,1,.28,1.08,2.25,2.25,0,0,1-.21,1,2.1,2.1,0,0,1-.57.74,2.31,2.31,0,0,1-.83.46,3.22,3.22,0,0,1-1,.17,3.81,3.81,0,0,1-1.39-.26,2.25,2.25,0,0,1-1-.8Z"/><path class="cls-1" d="M22.59,135v5.92a3.71,3.71,0,0,0,.12.93,2.72,2.72,0,0,0,.41.9,2.32,2.32,0,0,0,.75.67,2.75,2.75,0,0,0,2.29,0,2.32,2.32,0,0,0,.75-.67,2.84,2.84,0,0,0,.41-.9,3.83,3.83,0,0,0,.12-.93V135h1.31v6.13a4,4,0,0,1-.29,1.53,3.74,3.74,0,0,1-.79,1.2,3.62,3.62,0,0,1-1.19.78,3.92,3.92,0,0,1-1.47.27,4,4,0,0,1-1.47-.27,3.67,3.67,0,0,1-1.19-.78,3.77,3.77,0,0,1-.78-1.2,4,4,0,0,1-.29-1.53V135Z"/><path class="cls-1" d="M33.76,144.7a.92.92,0,0,1-.64-.26.86.86,0,0,1-.26-.64.92.92,0,0,1,.26-.64.91.91,0,0,1,1.27,0,.87.87,0,0,1,.27.64.89.89,0,0,1-.27.64A.82.82,0,0,1,33.76,144.7Z"/><path class="cls-1" d="M39.23,142.6a2.1,2.1,0,0,0,.91.79,2.69,2.69,0,0,0,1.13.25,2,2,0,0,0,.67-.11,1.78,1.78,0,0,0,.62-.3,1.51,1.51,0,0,0,.46-.51,1.29,1.29,0,0,0,.17-.69,1.05,1.05,0,0,0-.35-.85,3,3,0,0,0-.88-.49c-.35-.14-.74-.26-1.15-.38a4.89,4.89,0,0,1-1.14-.51,2.74,2.74,0,0,1-.88-.88,2.69,2.69,0,0,1-.36-1.49,2.53,2.53,0,0,1,.18-.9,2.62,2.62,0,0,1,.59-.88,3.09,3.09,0,0,1,1-.65,3.76,3.76,0,0,1,1.5-.27,5.35,5.35,0,0,1,1.51.22,2.54,2.54,0,0,1,1.27.89l-1.06,1a1.76,1.76,0,0,0-.7-.62,2.25,2.25,0,0,0-1-.23,2.38,2.38,0,0,0-.91.14,1.8,1.8,0,0,0-.59.37,1.35,1.35,0,0,0-.31.49,1.45,1.45,0,0,0-.09.48,1.2,1.2,0,0,0,.36.93,2.73,2.73,0,0,0,.88.54c.35.13.73.25,1.14.37a4.31,4.31,0,0,1,1.15.45,2.74,2.74,0,0,1,.87.79,2.3,2.3,0,0,1,.36,1.37,3.05,3.05,0,0,1-.26,1.26,2.81,2.81,0,0,1-.72.94,3,3,0,0,1-1.06.58,4,4,0,0,1-1.31.21,4.74,4.74,0,0,1-1.76-.33,2.9,2.9,0,0,1-1.32-1Z"/><path class="cls-1" d="M49.22,144.7a.89.89,0,0,1-.63-.26.83.83,0,0,1-.27-.64.89.89,0,0,1,.27-.64.86.86,0,0,1,.63-.26.9.9,0,0,1,.64.26.91.91,0,0,1,.27.64.93.93,0,0,1-.27.64A.84.84,0,0,1,49.22,144.7Z"/><path class="cls-1" d="M60,135H63.4a6.13,6.13,0,0,1,1.8.24,4.54,4.54,0,0,1,1.33.62,4,4,0,0,1,.94.9,4.47,4.47,0,0,1,.59,1,5.72,5.72,0,0,1,.31,1.06,6.14,6.14,0,0,1,.1,1,4.87,4.87,0,0,1-.34,1.8,4.44,4.44,0,0,1-1,1.53,5.15,5.15,0,0,1-1.66,1.09,6,6,0,0,1-2.29.41H60V135Zm1.31,8.44H63a5.49,5.49,0,0,0,1.58-.23,4,4,0,0,0,1.3-.67,3.48,3.48,0,0,0,.89-1.12,3.57,3.57,0,0,0,.32-1.58,4.63,4.63,0,0,0-.15-1.08,3.26,3.26,0,0,0-.57-1.19,3.19,3.19,0,0,0-1.15-.94,4.08,4.08,0,0,0-1.91-.39h-2v7.2Z"/><path class="cls-1" d="M72.4,135h6.24v1.23H73.71v2.88H78.3v1.23H73.71v3.1h5.17v1.23H72.4Z"/><path class="cls-1" d="M82.78,135h3.39a4.14,4.14,0,0,1,1.53.25,2.58,2.58,0,0,1,1,.65,2.2,2.2,0,0,1,.48.87,3.5,3.5,0,0,1,.14.93,3.33,3.33,0,0,1-.14.93,2.24,2.24,0,0,1-.48.88,2.83,2.83,0,0,1-1,.64,4,4,0,0,1-1.53.25H84.09v4.26H82.78Zm1.31,4.26h1.72a5,5,0,0,0,.76-.06,2,2,0,0,0,.66-.22,1.25,1.25,0,0,0,.47-.47,1.87,1.87,0,0,0,0-1.6,1.25,1.25,0,0,0-.47-.47,2.23,2.23,0,0,0-.66-.22,4,4,0,0,0-.76-.06H84.09Z"/><path class="cls-1" d="M94.93,135h1.19l4.13,9.66H98.72l-1-2.39h-4.6l-1,2.39H90.66Zm2.35,6.13-1.8-4.43h0l-1.83,4.43Z"/><path class="cls-1" d="M103.55,135H107a4.14,4.14,0,0,1,1.53.25,2.58,2.58,0,0,1,1,.65,2.2,2.2,0,0,1,.48.87,3.5,3.5,0,0,1,.14.93,2.52,2.52,0,0,1-.17.9,2.62,2.62,0,0,1-.47.78,2.59,2.59,0,0,1-.75.58,2.67,2.67,0,0,1-1,.3l2.74,4.4h-1.64l-2.45-4.26h-1.47v4.26h-1.31V135Zm1.31,4.26h1.72a4.77,4.77,0,0,0,.76-.06,2,2,0,0,0,.67-.22,1.25,1.25,0,0,0,.47-.47,1.58,1.58,0,0,0,.17-.8,1.69,1.69,0,0,0-.17-.8,1.25,1.25,0,0,0-.47-.47,2.29,2.29,0,0,0-.67-.22,3.84,3.84,0,0,0-.76-.06h-1.72Z"/><path class="cls-1" d="M115.71,136.19H112.6V135h7.53v1.23H117v8.43h-1.31v-8.43Z"/><path class="cls-1" d="M123.47,135h1.94l3.07,7.32h.06l3-7.32h1.94v9.66h-1.31v-7.94h0l-3.26,7.94h-.87l-3.26-7.94h0v7.94h-1.31V135Z"/><path class="cls-1" d="M138,135h6.24v1.23h-4.93v2.88h4.59v1.23h-4.59v3.1h5.17v1.23H138V135Z"/><path class="cls-1" d="M148.34,135h1.72l5.32,7.95h0V135h1.31v9.66h-1.66l-5.37-7.94h0v7.94h-1.31V135Z"/><path class="cls-1" d="M163.26,136.19h-3.1V135h7.53v1.23h-3.11v8.43h-1.31v-8.43Z"/><path class="cls-1" d="M181.39,144.87a5.14,5.14,0,0,1-2-.39,4.64,4.64,0,0,1-1.59-1.07,5,5,0,0,1-1-1.6,5.51,5.51,0,0,1,0-4,5,5,0,0,1,1-1.61,4.62,4.62,0,0,1,1.59-1.06,5.48,5.48,0,0,1,4.06,0,4.72,4.72,0,0,1,1.59,1.06,5.13,5.13,0,0,1,1,1.61,5.51,5.51,0,0,1,0,4,4.86,4.86,0,0,1-1,1.6,4.64,4.64,0,0,1-1.59,1.07A5.21,5.21,0,0,1,181.39,144.87Zm0-1.23a3.66,3.66,0,0,0,1.5-.31,3.29,3.29,0,0,0,1.14-.83,3.66,3.66,0,0,0,.74-1.22,4.4,4.4,0,0,0,0-3,3.66,3.66,0,0,0-.74-1.22,3.42,3.42,0,0,0-1.14-.83,3.66,3.66,0,0,0-1.5-.31,3.5,3.5,0,0,0-1.5.31,3.57,3.57,0,0,0-1.15.83,3.74,3.74,0,0,0-.73,1.22,4.4,4.4,0,0,0,0,3,3.64,3.64,0,0,0,.73,1.22,3.43,3.43,0,0,0,1.15.83A3.5,3.5,0,0,0,181.39,143.64Z"/><path class="cls-1" d="M190.35,135h6.07v1.23h-4.76v3h4.44v1.23h-4.44v4.18h-1.31Z"/><path class="cls-1" d="M206.06,135h6.24v1.23h-4.93v2.88H212v1.23h-4.59v3.1h5.17v1.23h-6.48V135Z"/><path class="cls-1" d="M216.44,135h1.72l5.32,7.95h0V135h1.31v9.66h-1.66l-5.38-7.94h0v7.94h-1.31V135Z"/><path class="cls-1" d="M229.35,135h6.23v1.23h-4.92v2.88h4.58v1.23h-4.58v3.1h5.17v1.23h-6.48V135Z"/><path class="cls-1" d="M239.73,135h3.39a4.14,4.14,0,0,1,1.53.25,2.42,2.42,0,0,1,.95.65,2.22,2.22,0,0,1,.49.87,3.53,3.53,0,0,1,.13.93,2.51,2.51,0,0,1-.16.9,2.85,2.85,0,0,1-.47.78,2.89,2.89,0,0,1-.75.58,2.72,2.72,0,0,1-1,.3l2.74,4.4H245l-2.46-4.26H241v4.26h-1.31V135Zm1.31,4.26h1.72a4.77,4.77,0,0,0,.76-.06,1.9,1.9,0,0,0,.66-.22,1.25,1.25,0,0,0,.47-.47,1.87,1.87,0,0,0,0-1.6,1.25,1.25,0,0,0-.47-.47,2.14,2.14,0,0,0-.66-.22,3.84,3.84,0,0,0-.76-.06H241Z"/><path class="cls-1" d="M258.33,139.22V144a4.23,4.23,0,0,1-.8.38,8.22,8.22,0,0,1-.93.28,8.58,8.58,0,0,1-1,.18c-.33,0-.64.05-.93.05a5.59,5.59,0,0,1-2.19-.41,4.58,4.58,0,0,1-1.62-1.11,4.72,4.72,0,0,1-1-1.61,5.53,5.53,0,0,1,0-4,5,5,0,0,1,1-1.61,4.62,4.62,0,0,1,1.59-1.06,5.17,5.17,0,0,1,2-.39,6.06,6.06,0,0,1,2.18.33,4,4,0,0,1,1.42.92l-.93,1a3.45,3.45,0,0,0-1.26-.79,4.37,4.37,0,0,0-1.4-.23,3.44,3.44,0,0,0-1.5.31,3.52,3.52,0,0,0-1.88,2.05,4.1,4.1,0,0,0-.26,1.49,4,4,0,0,0,.29,1.52,3.62,3.62,0,0,0,.79,1.22,3.4,3.4,0,0,0,1.19.81,3.59,3.59,0,0,0,1.48.3,7,7,0,0,0,1.32-.13,3.24,3.24,0,0,0,1.05-.38v-2.69H254.9v-1.23Z"/><path class="cls-1" d="M265,140.5,261.38,135h1.68l2.63,4.25L268.4,135H270l-3.65,5.54v4.13H265V140.5Z"/><rect class="cls-1" x="20.22" y="125.21" width="249.57" height="0.58"/><path class="cls-4" d="M78.66,90.27a.85.85,0,1,0,.84.85A.85.85,0,0,0,78.66,90.27Z"/><path class="cls-5" d="M78.88,82.06a9.09,9.09,0,0,0-9.1,9.1,12.38,12.38,0,0,0,1.36,5.75c1.89,3.25,7.74,10.29,7.74,10.29s5.5-6.84,7.27-9.8A13.29,13.29,0,0,0,88,91.16,9.1,9.1,0,0,0,78.88,82.06Zm-.22,12.21a3.15,3.15,0,1,1,3.15-3.15A3.15,3.15,0,0,1,78.66,94.27Z"/><circle class="cls-4" cx="121.29" cy="86.05" r="0.28"/><path class="cls-5" d="M121.43,80.25a5.82,5.82,0,0,0-5.82,5.83,7.89,7.89,0,0,0,.87,3.67,76.63,76.63,0,0,0,5,6.59S125,92,126.08,90.06a8.45,8.45,0,0,0,1.18-4A5.83,5.83,0,0,0,121.43,80.25Zm-.14,7.81a2,2,0,1,1,2-2A2,2,0,0,1,121.29,88.06Z"/><path class="cls-4" d="M76.83,80a11.58,11.58,0,0,1,2-.2A11.49,11.49,0,0,0,76.83,80Z"/><path class="cls-4" d="M87.65,99.35l-.14.21Z"/><path class="cls-4" d="M87,100.25c-.05.07-.09.14-.14.2S87,100.32,87,100.25Z"/><path class="cls-4" d="M71.73,82.34l.19-.16Z"/><path class="cls-4" d="M74.79,80.54A11.84,11.84,0,0,1,76.45,80,11.84,11.84,0,0,0,74.79,80.54Z"/><path class="cls-4" d="M73,81.43a11.88,11.88,0,0,1,1.11-.6A11.88,11.88,0,0,0,73,81.43Z"/><path class="cls-4" d="M78.66,88a3.15,3.15,0,1,0,3.15,3.15A3.15,3.15,0,0,0,78.66,88Z"/><path class="cls-6" d="M83,108.43c.22,1.18-1.63,2.51-4.12,3s-4.69-.15-4.9-1.34c-.15-.86.78-1.79,2.25-2.41l-.52-.65c-2.19.86-3.61,2.3-3.37,3.66.32,1.74,3.24,2.67,6.54,2.08s5.71-2.49,5.4-4.23a2.74,2.74,0,0,0-2-1.87c-.17.23-.34.44-.5.64C82.46,107.53,82.93,107.92,83,108.43Z"/><path class="cls-3" d="M74,110.05c.21,1.19,2.41,1.78,4.9,1.34s4.34-1.78,4.12-3c-.09-.51-.56-.9-1.25-1.16l-1.09,1.38a2.3,2.3,0,0,1-1.78.86h0a2.3,2.3,0,0,1-1.78-.83l-.85-1C74.78,108.26,73.85,109.19,74,110.05Z"/><path class="cls-5" d="M85.44,102.49c.52-.7,1-1.39,1.46-2C86.45,101.1,86,101.79,85.44,102.49Z"/><path class="cls-5" d="M76.45,80l.38-.07Z"/><path class="cls-5" d="M74.1,80.83c.23-.11.46-.2.69-.29Z"/><path class="cls-5" d="M71.92,82.18A12.87,12.87,0,0,1,73,81.43,12.87,12.87,0,0,0,71.92,82.18Z"/><path class="cls-5" d="M71.73,82.34A11.49,11.49,0,0,0,70.09,84h0A11.49,11.49,0,0,1,71.73,82.34Z"/><path class="cls-7" d="M89.09,82.37l9.75,1.78V41.22h-6V35.93H89V30.64H86V20H83V30.64H79.92v5.29H76.13v5.29h-6V84a11.49,11.49,0,0,1,1.64-1.63l.19-.16A12.87,12.87,0,0,1,73,81.43a11.88,11.88,0,0,1,1.11-.6l.69-.29A11.84,11.84,0,0,1,76.45,80l.38-.07a11.49,11.49,0,0,1,2-.2,11.32,11.32,0,0,1,7.73,3.07Z"/><circle class="cls-4" cx="121.29" cy="86.05" r="0.28"/><path class="cls-6" d="M125.3,99.15c-.13,1-2,1.51-4.11,1.21s-3.76-1.32-3.63-2.28c.09-.63.9-1.08,2-1.24l-.36-.43c-1.62.19-2.8.84-2.93,1.76-.19,1.35,1.9,2.75,4.65,3.13s5.15-.4,5.33-1.74c.15-1.06-1.13-2.15-3-2.75l-.28.35C124.44,97.61,125.41,98.39,125.3,99.15Z"/><path class="cls-3" d="M117.56,98.08c-.13,1,1.49,2,3.63,2.28s4-.24,4.11-1.21c.11-.76-.86-1.54-2.31-2l-.21.26a1.75,1.75,0,0,1-1.34.65h0a1.73,1.73,0,0,1-1.33-.63s-.23-.27-.49-.6C118.46,97,117.65,97.45,117.56,98.08Z"/></svg>